# xmcd
#
# Track frame offsets:
# 150
# 17899
# 34122
# 52968
# 75505
# 92739
# 113597
# 134894
# 157531
# 177641
# 200509
# 208913
# 227077
#
# Disc length: 3331 seconds
#
#
# Revision: 0
# Processed by: cddbd v1.5.2PL0 Copyright (c) Steve Scherf et al.
# Submitted via: FreeRIP 2.944 
#
DISCID=aa0d010d
DTITLE=John Legend - Once Again
DYEAR=2006
DGENRE=Blues
TTITLE0=Save Room
TTITLE1=Heaven
TTITLE2=Stereo
TTITLE3=Show Me
TTITLE4=Each Day Gets Better
TTITLE5=P.D.A. (We Just Don't Care)
TTITLE6=Slow Dance
TTITLE7=Again
TTITLE8=Maxine
TTITLE9=Where Did My Baby Go
TTITLE10=Maxine's Interlude
TTITLE11=Another Again
TTITLE12=Coming Home
EXTD=
EXTT0=
EXTT1=
EXTT2=
EXTT3=
EXTT4=
EXTT5=
EXTT6=
EXTT7=
EXTT8=
EXTT9=
EXTT10=
EXTT11=
EXTT12=
PLAYORDER=
